<svg xmlns="http://www.w3.org/2000/svg" width="16.851" height="21.42" viewBox="0 0 16.851 21.42">
  <g id="icon-new" transform="translate(-6 -7)">
    <path id="パス_886" data-name="パス 886" d="M20.458,18H20.7c.636,0,1.151.821,1.151,1.833V30.946c0,1.012-.515,1.833-1.151,1.833H8.151C7.515,32.779,7,31.958,7,30.946V19.833C7,18.821,7.515,18,8.151,18H9.784" transform="translate(0 -5.359)" fill="none" stroke="#034693" stroke-linecap="round" stroke-linejoin="round" stroke-width="2"/>
    <path id="パス_887" data-name="パス 887" d="M12.831,14.729,19.56,8a2.537,2.537,0,0,1,1.386.523,2.621,2.621,0,0,1,.569,1.432l-6.729,6.729-2.35.415Z" transform="translate(-1.913)" fill="none" stroke="#034693" stroke-linecap="round" stroke-linejoin="round" stroke-width="2"/>
    <line id="線_7" data-name="線 7" x2="2" transform="translate(16.351 17.574)" fill="none" stroke="#034693" stroke-linecap="round" stroke-linejoin="round" stroke-width="2"/>
    <line id="線_8" data-name="線 8" x2="8.351" transform="translate(10 20.883)" fill="none" stroke="#034693" stroke-linecap="round" stroke-linejoin="round" stroke-width="2"/>
    <line id="線_10" data-name="線 10" x2="8.351" transform="translate(10 24.192)" fill="none" stroke="#034693" stroke-linecap="round" stroke-linejoin="round" stroke-width="2"/>
    <line id="線_9" data-name="線 9" x2="1.955" y2="1.955" transform="translate(15.558 10.088)" fill="none" stroke="#034693" stroke-linecap="round" stroke-linejoin="round" stroke-width="2"/>
  </g>
</svg>
